  0
SECTION
  2
HEADER
  9
$ACADVER
  1
AC1014
  9
$HANDSEED
  5
FFFF
  9
$MEASUREMENT
 70
     1
  0
ENDSEC
  0
SECTION
  2
TABLES
  0
TABLE
  2
VPORT
  5
8
330
0
100
AcDbSymbolTable
 70
     4
  0
VPORT
  5
2E
330
8
100
AcDbSymbolTableRecord
100
AcDbViewportTableRecord
  2
*ACTIVE
 70
     0
 10
0.0
 20
0.0
 11
1.0
 21
1.0
 12
210.0
 22
148.5
 13
0.0
 23
0.0
 14
10.0
 24
10.0
 15
10.0
 25
10.0
 16
0.0
 26
0.0
 36
1.0
 17
0.0
 27
0.0
 37
0.0
 40
341.0
 41
1.24
 42
50.0
 43
0.0
 44
0.0
 50
0.0
 51
0.0
 71
     0
 72
   100
 73
     1
 74
     3
 75
     0
 76
     0
 77
     0
 78
     0
  0
ENDTAB
  0
TABLE
  2
LTYPE
  5
5
330
0
100
AcDbSymbolTable
 70
     1
  0
LTYPE
  5
14
330
5
100
AcDbSymbolTableRecord
100
AcDbLinetypeTableRecord
  2
BYBLOCK
 70
     0
  3

 72
    65
 73
     0
 40
0.0
  0
LTYPE
  5
15
330
5
100
AcDbSymbolTableRecord
100
AcDbLinetypeTableRecord
  2
BYLAYER
 70
     0
  3

 72
    65
 73
     0
 40
0.0
  0
LTYPE
  5
16
330
5
100
AcDbSymbolTableRecord
100
AcDbLinetypeTableRecord
  2
CONTINUOUS
 70
     0
  3
Solid line
 72
    65
 73
     0
 40
0.0
  0
ENDTAB
  0
TABLE
  2
LAYER
  5
2
100
AcDbSymbolTable
 70
2
  0
LAYER
  5
50
100
AcDbSymbolTableRecord
100
AcDbLayerTableRecord
  2
0
 70
0
  6
CONTINUOUS
  0
LAYER
  5
51
100
AcDbSymbolTableRecord
100
AcDbLayerTableRecord
  2
Layer_1
 70
0
  6
CONTINUOUS
  0
ENDTAB
  0
TABLE
  2
STYLE
  5
3
330
0
100
AcDbSymbolTable
 70
     1
  0
STYLE
  5
11
330
3
100
AcDbSymbolTableRecord
100
AcDbTextStyleTableRecord
  2
STANDARD
 70
     0
 40
0.0
 41
1.0
 50
0.0
 71
     0
 42
2.5
  3
txt
  4

  0
ENDTAB
  0
TABLE
  2
VIEW
  5
6
330
0
100
AcDbSymbolTable
 70
     0
  0
ENDTAB
  0
TABLE
  2
UCS
  5
7
330
0
100
AcDbSymbolTable
 70
     0
  0
ENDTAB
  0
TABLE
  2
APPID
  5
9
330
0
100
AcDbSymbolTable
 70
     2
  0
APPID
  5
12
330
9
100
AcDbSymbolTableRecord
100
AcDbRegAppTableRecord
  2
ACAD
 70
     0
  0
ENDTAB
  0
TABLE
  2
DIMSTYLE
  5
A
330
0
100
AcDbSymbolTable
 70
     1
  0
DIMSTYLE
105
27
330
A
100
AcDbSymbolTableRecord
100
AcDbDimStyleTableRecord
  2
ISO-25
 70
     0
  3

  4

  5

  6

  7

 40
1.0
 41
2.5
 42
0.625
 43
3.75
 44
1.25
 45
0.0
 46
0.0
 47
0.0
 48
0.0
140
2.5
141
2.5
142
0.0
143
0.03937007874016
144
1.0
145
0.0
146
1.0
147
0.625
 71
     0
 72
     0
 73
     0
 74
     0
 75
     0
 76
     0
 77
     1
 78
     8
170
     0
171
     3
172
     1
173
     0
174
     0
175
     0
176
     0
177
     0
178
     0
270
     2
271
     2
272
     2
273
     2
274
     3
340
11
275
     0
280
     0
281
     0
282
     0
283
     0
284
     8
285
     0
286
     0
287
     3
288
     0
  0
ENDTAB
  0
TABLE
  2
BLOCK_RECORD
  5
1
330
0
100
AcDbSymbolTable
 70
     1
  0
BLOCK_RECORD
  5
1F
330
1
100
AcDbSymbolTableRecord
100
AcDbBlockTableRecord
  2
*MODEL_SPACE
  0
BLOCK_RECORD
  5
1B
330
1
100
AcDbSymbolTableRecord
100
AcDbBlockTableRecord
  2
*PAPER_SPACE
  0
ENDTAB
  0
ENDSEC
  0
SECTION
  2
BLOCKS
  0
BLOCK
  5
20
330
1F
100
AcDbEntity
  8
0
100
AcDbBlockBegin
  2
*MODEL_SPACE
 70
     0
 10
0.0
 20
0.0
 30
0.0
  3
*MODEL_SPACE
  1

  0
ENDBLK
  5
21
330
1F
100
AcDbEntity
  8
0
100
AcDbBlockEnd
  0
BLOCK
  5
1C
330
1B
100
AcDbEntity
 67
     1
  8
0
100
AcDbBlockBegin
  2
*PAPER_SPACE
  1

  0
ENDBLK
  5
1D
330
1B
100
AcDbEntity
 67
     1
  8
0
100
AcDbBlockEnd
  0
ENDSEC
  0
SECTION
  2
ENTITIES
  0
LWPOLYLINE
  5
100
100
AcDbEntity
  8
Layer_1
 62
7
100
AcDbPolyline
 90
132
 70
1
 10
82.843685
 20
298.846845
 30
0.0
 10
80.527992
 20
298.790233
 30
0.0
 10
78.242698
 20
298.622222
 30
0.0
 10
75.990631
 20
298.345546
 30
0.0
 10
73.774619
 20
297.962938
 30
0.0
 10
71.597488
 20
297.477133
 30
0.0
 10
69.462067
 20
296.890863
 30
0.0
 10
67.371182
 20
296.206863
 30
0.0
 10
65.327661
 20
295.427866
 30
0.0
 10
63.334332
 20
294.556606
 30
0.0
 10
61.394022
 20
293.595815
 30
0.0
 10
59.509558
 20
292.548228
 30
0.0
 10
57.683767
 20
291.416579
 30
0.0
 10
55.919478
 20
290.203601
 30
0.0
 10
54.219517
 20
288.912027
 30
0.0
 10
52.586713
 20
287.544591
 30
0.0
 10
51.023892
 20
286.104027
 30
0.0
 10
49.533882
 20
284.593069
 30
0.0
 10
48.119510
 20
283.014449
 30
0.0
 10
46.783604
 20
281.370902
 30
0.0
 10
45.528991
 20
279.665161
 30
0.0
 10
44.358498
 20
277.899960
 30
0.0
 10
43.274954
 20
276.078032
 30
0.0
 10
42.281185
 20
274.202111
 30
0.0
 10
41.380019
 20
272.274931
 30
0.0
 10
40.574283
 20
270.299225
 30
0.0
 10
39.866805
 20
268.277726
 30
0.0
 10
39.260412
 20
266.213169
 30
0.0
 10
38.757932
 20
264.108287
 30
0.0
 10
38.362191
 20
261.965813
 30
0.0
 10
38.076019
 20
259.788482
 30
0.0
 10
37.902241
 20
257.579026
 30
0.0
 10
37.843685
 20
255.340179
 30
0.0
 10
37.870142
 20
253.900760
 30
0.0
 10
37.945305
 20
252.469079
 30
0.0
 10
38.068602
 20
251.046101
 30
0.0
 10
38.239463
 20
249.632791
 30
0.0
 10
38.457316
 20
248.230115
 30
0.0
 10
38.721588
 20
246.839038
 30
0.0
 10
39.031709
 20
245.460525
 30
0.0
 10
39.387107
 20
244.095541
 30
0.0
 10
39.787210
 20
242.745051
 30
0.0
 10
40.231447
 20
241.410020
 30
0.0
 10
40.719246
 20
240.091414
 30
0.0
 10
41.250035
 20
238.790198
 30
0.0
 10
41.823243
 20
237.507337
 30
0.0
 10
42.438299
 20
236.243795
 30
0.0
 10
43.094631
 20
235.000539
 30
0.0
 10
43.791666
 20
233.778534
 30
0.0
 10
44.528835
 20
232.578744
 30
0.0
 10
45.305564
 20
231.402135
 30
0.0
 10
46.121283
 20
230.249671
 30
0.0
 10
46.975420
 20
229.122319
 30
0.0
 10
47.867403
 20
228.021043
 30
0.0
 10
48.796661
 20
226.946809
 30
0.0
 10
49.762622
 20
225.900581
 30
0.0
 10
50.764715
 20
224.883325
 30
0.0
 10
51.802368
 20
223.896006
 30
0.0
 10
52.875009
 20
222.939589
 30
0.0
 10
53.982067
 20
222.015039
 30
0.0
 10
55.122970
 20
221.123322
 30
0.0
 10
56.297147
 20
220.265402
 30
0.0
 10
57.504026
 20
219.442245
 30
0.0
 10
58.743035
 20
218.654816
 30
0.0
 10
60.013604
 20
217.904080
 30
0.0
 10
60.013604
 20
176.777882
 30
0.0
 10
104.941833
 20
176.777882
 30
0.0
 10
104.941833
 20
217.502128
 30
0.0
 10
106.250586
 20
218.243685
 30
0.0
 10
107.527206
 20
219.023812
 30
0.0
 10
108.771079
 20
219.841497
 30
0.0
 10
109.981593
 20
220.695726
 30
0.0
 10
111.158134
 20
221.585488
 30
0.0
 10
112.300090
 20
222.509769
 30
0.0
 10
113.406847
 20
223.467557
 30
0.0
 10
114.477794
 20
224.457840
 30
0.0
 10
115.512316
 20
225.479604
 30
0.0
 10
116.509802
 20
226.531838
 30
0.0
 10
117.469638
 20
227.613528
 30
0.0
 10
118.391212
 20
228.723662
 30
0.0
 10
119.273909
 20
229.861228
 30
0.0
 10
120.117119
 20
231.025212
 30
0.0
 10
120.920227
 20
232.214603
 30
0.0
 10
121.682621
 20
233.428387
 30
0.0
 10
122.403688
 20
234.665552
 30
0.0
 10
123.082815
 20
235.925086
 30
0.0
 10
123.719389
 20
237.205975
 30
0.0
 10
124.312798
 20
238.507207
 30
0.0
 10
124.862428
 20
239.827770
 30
0.0
 10
125.367666
 20
241.166651
 30
0.0
 10
125.827901
 20
242.522838
 30
0.0
 10
126.242517
 20
243.895317
 30
0.0
 10
126.610904
 20
245.283077
 30
0.0
 10
126.932448
 20
246.685104
 30
0.0
 10
127.206536
 20
248.100386
 30
0.0
 10
127.432555
 20
249.527910
 30
0.0
 10
127.609892
 20
250.966664
 30
0.0
 10
127.737935
 20
252.415636
 30
0.0
 10
127.816070
 20
253.873811
 30
0.0
 10
127.843685
 20
255.340179
 30
0.0
 10
127.785129
 20
257.579026
 30
0.0
 10
127.611351
 20
259.788482
 30
0.0
 10
127.325178
 20
261.965813
 30
0.0
 10
126.929438
 20
264.108287
 30
0.0
 10
126.426958
 20
266.213169
 30
0.0
 10
125.820565
 20
268.277726
 30
0.0
 10
125.113087
 20
270.299225
 30
0.0
 10
124.307351
 20
272.274931
 30
0.0
 10
123.406185
 20
274.202111
 30
0.0
 10
122.412416
 20
276.078032
 30
0.0
 10
121.328872
 20
277.899960
 30
0.0
 10
120.158379
 20
279.665161
 30
0.0
 10
118.903766
 20
281.370902
 30
0.0
 10
117.567860
 20
283.014449
 30
0.0
 10
116.153488
 20
284.593069
 30
0.0
 10
114.663478
 20
286.104027
 30
0.0
 10
113.100657
 20
287.544591
 30
0.0
 10
111.467852
 20
288.912027
 30
0.0
 10
109.767892
 20
290.203601
 30
0.0
 10
108.003603
 20
291.416579
 30
0.0
 10
106.177812
 20
292.548228
 30
0.0
 10
104.293348
 20
293.595815
 30
0.0
 10
102.353038
 20
294.556606
 30
0.0
 10
100.359708
 20
295.427866
 30
0.0
 10
98.316188
 20
296.206863
 30
0.0
 10
96.225303
 20
296.890863
 30
0.0
 10
94.089881
 20
297.477133
 30
0.0
 10
91.912751
 20
297.962938
 30
0.0
 10
89.696738
 20
298.345546
 30
0.0
 10
87.444672
 20
298.622222
 30
0.0
 10
85.159378
 20
298.790233
 30
0.0
 10
82.843685
 20
298.846845
 30
0.0
  0
LWPOLYLINE
  5
101
100
AcDbEntity
  8
Layer_1
 62
7
100
AcDbPolyline
 90
129
 70
1
 10
115.405757
 20
254.818143
 30
0.0
 10
115.362363
 20
253.101958
 30
0.0
 10
115.233574
 20
251.408302
 30
0.0
 10
115.021492
 20
249.739265
 30
0.0
 10
114.728204
 20
248.096957
 30
0.0
 10
114.355811
 20
246.483459
 30
0.0
 10
113.906406
 20
244.900875
 30
0.0
 10
113.382089
 20
243.351295
 30
0.0
 10
112.784948
 20
241.836817
 30
0.0
 10
112.117084
 20
240.359537
 30
0.0
 10
111.380593
 20
238.921553
 30
0.0
 10
110.577566
 20
237.524958
 30
0.0
 10
109.710098
 20
236.171839
 30
0.0
 10
108.780292
 20
234.864305
 30
0.0
 10
107.790237
 20
233.604447
 30
0.0
 10
106.742029
 20
232.394359
 30
0.0
 10
105.637769
 20
231.236132
 30
0.0
 10
104.479542
 20
230.131870
 30
0.0
 10
103.269455
 20
229.083665
 30
0.0
 10
102.009594
 20
228.093610
 30
0.0
 10
100.702060
 20
227.163803
 30
0.0
 10
99.348944
 20
226.296335
 30
0.0
 10
97.952348
 20
225.493309
 30
0.0
 10
96.514362
 20
224.756817
 30
0.0
 10
95.037082
 20
224.088953
 30
0.0
 10
93.522604
 20
223.491813
 30
0.0
 10
91.973027
 20
222.967493
 30
0.0
 10
90.390443
 20
222.518090
 30
0.0
 10
88.776945
 20
222.145697
 30
0.0
 10
87.134631
 20
221.852409
 30
0.0
 10
85.465597
 20
221.640325
 30
0.0
 10
83.771944
 20
221.511536
 30
0.0
 10
82.055756
 20
221.468144
 30
0.0
 10
80.339570
 20
221.511536
 30
0.0
 10
78.645914
 20
221.640325
 30
0.0
 10
76.976878
 20
221.852409
 30
0.0
 10
75.334569
 20
222.145697
 30
0.0
 10
73.721071
 20
222.518090
 30
0.0
 10
72.138487
 20
222.967493
 30
0.0
 10
70.588907
 20
223.491813
 30
0.0
 10
69.074430
 20
224.088953
 30
0.0
 10
67.597150
 20
224.756817
 30
0.0
 10
66.159166
 20
225.493309
 30
0.0
 10
64.762568
 20
226.296335
 30
0.0
 10
63.409454
 20
227.163803
 30
0.0
 10
62.101920
 20
228.093610
 30
0.0
 10
60.842059
 20
229.083665
 30
0.0
 10
59.631972
 20
230.131873
 30
0.0
 10
58.473745
 20
231.236132
 30
0.0
 10
57.369485
 20
232.394359
 30
0.0
 10
56.321277
 20
233.604447
 30
0.0
 10
55.331222
 20
234.864308
 30
0.0
 10
54.401416
 20
236.171842
 30
0.0
 10
53.533948
 20
237.524958
 30
0.0
 10
52.730921
 20
238.921553
 30
0.0
 10
51.994430
 20
240.359540
 30
0.0
 10
51.326566
 20
241.836817
 30
0.0
 10
50.729425
 20
243.351295
 30
0.0
 10
50.205106
 20
244.900875
 30
0.0
 10
49.755703
 20
246.483459
 30
0.0
 10
49.383310
 20
248.096957
 30
0.0
 10
49.090022
 20
249.739265
 30
0.0
 10
48.877937
 20
251.408302
 30
0.0
 10
48.749148
 20
253.101958
 30
0.0
 10
48.705757
 20
254.818143
 30
0.0
 10
48.749148
 20
256.534331
 30
0.0
 10
48.877937
 20
258.227985
 30
0.0
 10
49.090022
 20
259.897019
 30
0.0
 10
49.383310
 20
261.539333
 30
0.0
 10
49.755703
 20
263.152830
 30
0.0
 10
50.205106
 20
264.735415
 30
0.0
 10
50.729425
 20
266.284994
 30
0.0
 10
51.326566
 20
267.799469
 30
0.0
 10
51.994430
 20
269.276749
 30
0.0
 10
52.730921
 20
270.714734
 30
0.0
 10
53.533948
 20
272.111332
 30
0.0
 10
54.401416
 20
273.464446
 30
0.0
 10
55.331222
 20
274.771981
 30
0.0
 10
56.321277
 20
276.031841
 30
0.0
 10
57.369482
 20
277.241931
 30
0.0
 10
58.473745
 20
278.400155
 30
0.0
 10
59.631972
 20
279.504419
 30
0.0
 10
60.842059
 20
280.552626
 30
0.0
 10
62.101918
 20
281.542681
 30
0.0
 10
63.409452
 20
282.472488
 30
0.0
 10
64.762568
 20
283.339953
 30
0.0
 10
66.159166
 20
284.142980
 30
0.0
 10
67.597150
 20
284.879473
 30
0.0
 10
69.074430
 20
285.547337
 30
0.0
 10
70.588907
 20
286.144476
 30
0.0
 10
72.138487
 20
286.668795
 30
0.0
 10
73.721071
 20
287.118199
 30
0.0
 10
75.334569
 20
287.490592
 30
0.0
 10
76.976878
 20
287.783879
 30
0.0
 10
78.645914
 20
287.995964
 30
0.0
 10
80.339570
 20
288.124751
 30
0.0
 10
82.055756
 20
288.168146
 30
0.0
 10
83.709486
 20
288.127159
 30
0.0
 10
85.351996
 20
288.004953
 30
0.0
 10
86.980543
 20
287.802661
 30
0.0
 10
88.592401
 20
287.521414
 30
0.0
 10
90.184833
 20
287.162345
 30
0.0
 10
91.755108
 20
286.726586
 30
0.0
 10
93.300494
 20
286.215270
 30
0.0
 10
94.818250
 20
285.629528
 30
0.0
 10
96.305648
 20
284.970494
 30
0.0
 10
97.759954
 20
284.239298
 30
0.0
 10
99.178433
 20
283.437074
 30
0.0
 10
100.558354
 20
282.564954
 30
0.0
 10
101.896982
 20
281.624070
 30
0.0
 10
103.191583
 20
280.615554
 30
0.0
 10
104.439421
 20
279.540539
 30
0.0
 10
105.637769
 20
278.400156
 30
0.0
 10
106.778152
 20
277.201810
 30
0.0
 10
107.853165
 20
275.953970
 30
0.0
 10
108.861680
 20
274.659369
 30
0.0
 10
109.802568
 20
273.320742
 30
0.0
 10
110.674687
 20
271.940821
 30
0.0
 10
111.476909
 20
270.522342
 30
0.0
 10
112.208106
 20
269.068035
 30
0.0
 10
112.867141
 20
267.580638
 30
0.0
 10
113.452881
 20
266.062882
 30
0.0
 10
113.964199
 20
264.517498
 30
0.0
 10
114.399957
 20
262.947220
 30
0.0
 10
114.759026
 20
261.354788
 30
0.0
 10
115.040272
 20
259.742931
 30
0.0
 10
115.242565
 20
258.114383
 30
0.0
 10
115.364771
 20
256.471874
 30
0.0
 10
115.405757
 20
254.818143
 30
0.0
  0
LWPOLYLINE
  5
102
100
AcDbEntity
  8
Layer_1
 62
7
100
AcDbPolyline
 90
9
 70
1
 10
72.625294
 20
207.510500
 30
0.0
 10
93.062070
 20
207.510500
 30
0.0
 10
93.062073
 20
207.510498
 30
0.0
 10
93.062073
 20
188.306733
 30
0.0
 10
93.062070
 20
188.306733
 30
0.0
 10
72.625294
 20
188.306733
 30
0.0
 10
72.625291
 20
188.306733
 30
0.0
 10
72.625291
 20
207.510498
 30
0.0
 10
72.625294
 20
207.510500
 30
0.0
  0
ENDSEC
  0
SECTION
  2
OBJECTS
  0
DICTIONARY
  5
C
330
0
100
AcDbDictionary
  3
ACAD_GROUP
350
D
  3
ACAD_MLINESTYLE
350
17
  0
DICTIONARY
  5
D
330
C
100
AcDbDictionary
  0
DICTIONARY
  5
1A
330
C
100
AcDbDictionary
  0
DICTIONARY
  5
17
330
C
100
AcDbDictionary
  3
STANDARD
350
18
  0
DICTIONARY
  5
19
330
C
100
AcDbDictionary
  0
ENDSEC
  0
EOF
