<?xml version="1.0" encoding="UTF-8" standalone="no"?>
<!-- Created with Inkscape (http://www.inkscape.org/) -->

<svg
   xmlns:dc="http://purl.org/dc/elements/1.1/"
   xmlns:cc="http://creativecommons.org/ns#"
   xmlns:rdf="http://www.w3.org/1999/02/22-rdf-syntax-ns#"
   xmlns:svg="http://www.w3.org/2000/svg"
   xmlns="http://www.w3.org/2000/svg"
   xmlns:sodipodi="http://sodipodi.sourceforge.net/DTD/sodipodi-0.dtd"
   xmlns:inkscape="http://www.inkscape.org/namespaces/inkscape"
   width="210mm"
   height="297mm"
   viewBox="0 0 744.09448819 1052.3622047"
   id="svg2"
   version="1.1"
   inkscape:version="0.91 r13725"
   sodipodi:docname="cup2-gray-4-print.svg">
  <sodipodi:namedview
     id="base"
     pagecolor="#ffffff"
     bordercolor="#666666"
     borderopacity="1.0"
     inkscape:pageopacity="0.0"
     inkscape:pageshadow="2"
     inkscape:zoom="0.5"
     inkscape:cx="247.06603"
     inkscape:cy="787.41951"
     inkscape:document-units="px"
     inkscape:current-layer="layer1"
     showgrid="true"
     showguides="false"
     inkscape:snap-page="false"
     inkscape:snap-grids="true"
     inkscape:window-width="1024"
     inkscape:window-height="768"
     inkscape:window-x="0"
     inkscape:window-y="0"
     inkscape:window-maximized="0">
    <inkscape:grid
       id="grid3354"
       type="xygrid" />
  </sodipodi:namedview>
  <defs
     id="defs4" />
  <metadata
     id="metadata7">
    <rdf:RDF>
      <cc:Work
         rdf:about="">
        <dc:format>image/svg+xml</dc:format>
        <dc:type
           rdf:resource="http://purl.org/dc/dcmitype/StillImage" />
        <dc:title></dc:title>
      </cc:Work>
    </rdf:RDF>
  </metadata>
  <g
     id="layer1"
     inkscape:groupmode="layer"
     inkscape:label="Layer 1">
    <path
       id="rect3367"
       d="M278.96289 72.992188L271.967868367 73.1690673188L265.064674555 73.6939989708L258.261849382 74.5584421387L251.567933664 75.7538560053L244.991468219 77.2716997533L238.540993864 79.1034325655L232.225051416 81.2405136248L226.052181693 83.6744021138L220.03092551 86.3965572154L214.169823685 89.3984381123L208.477417036 92.6715039873L202.96224638 96.2072140232L197.632852533 99.9970274028L192.497776312 104.032403309L187.565558535 108.304800924L182.84474002 112.805679431L178.343861582 117.526498013L174.071464039 122.458715852L170.036088209 127.593792132L166.246274907 132.923186035L162.710564952 138.438356743L159.437499161 144.13076344L156.43561835 149.991865309L153.713463337 156.013121532L151.279574939 162.185991291L149.142493972 168.501933771L147.310761254 174.952408152L145.792917603 181.52887362L144.597503835 188.222789355L143.733060767 195.025614541L143.208129216 201.92880836L143.03125 208.923829996L143.338213069 217.894257493L144.226779284 226.755915775L145.68313608 235.484680388L147.693470892 244.056426878L150.243971154 252.447030791L153.3208243 260.632367674L156.910217765 268.588313073L160.998338984 276.290742533L165.57137539 283.715531602L170.61551442 290.838555826L176.116943506 297.63569075L182.061850084 304.082811921L188.436421587 310.155794885L195.226845452 315.830515189L202.419309111 321.082848379L210.0 325.88867L210.0 454.38281L345.71484 454.38281L345.71484 327.14453L349.66819561 324.827618118L353.524484666 322.390198701L357.281855822 319.835435504L360.938457731 317.166492279L367.941948422 311.498720761L374.520145968 305.412194176L380.658239596 298.93222255L386.341418533 292.084115913L391.554872007 284.893184291L396.283789246 277.384737713L400.513359478 269.584086206L404.228771929 261.516539798L407.415215827 253.207408518L410.057880401 244.682002392L412.141954878 235.965631449L413.652628485 227.083605717L414.188311596 222.588381689L414.57509045 218.061235223L414.8111137 213.505330075L414.89453 208.923829996L414.717650784 201.92880836L414.192719233 195.025614541L413.328276165 188.222789355L412.132862397 181.52887362L410.615018746 174.952408152L408.783286028 168.501933771L406.646205061 162.185991291L404.212316663 156.013121532L401.49016165 149.991865309L398.488280839 144.13076344L395.215215048 138.438356743L391.679505093 132.923186035L387.889691791 127.593792132L383.854315961 122.458715852L379.581918418 117.526498013L375.08103998 112.805679431L370.360221465 108.304800924L365.428003688 104.032403309L360.292927467 99.9970274028L354.96353362 96.2072140232L349.448362964 92.6715039873L343.755956315 89.3984381123L337.89485449 86.3965572154L331.873598307 83.6744021138L325.700728584 81.2405136248L319.384786136 79.1034325655L312.934311781 77.2716997533L306.357846336 75.7538560053L299.663930618 74.5584421387L292.861105445 73.6939989708L285.957911633 73.1690673188L278.96289 72.992188L278.96289 72.992188"
       style="fill:#666666;fill-rule:evenodd;stroke:none;stroke-width:7.08661417;stroke-linecap:butt;stroke-linejoin:miter;stroke-opacity:1;stroke-miterlimit:4;stroke-dasharray:none" />
    <path
       id="path3365"
       d="M399.43533 206.25305L399.287270341 212.226933163L398.845818147 218.160270494L398.115063592 224.043187435L397.099096853 229.865809431L395.802008104 235.618261926L394.22788752 241.290670364L392.380825276 246.873160189L390.264911548 252.355856845L387.884236509 257.728885775L385.242890336 262.982372424L382.344963203 268.106442235L379.194545286 273.091220653L375.795726759 277.926833122L372.152597797 282.603405085L368.269248576 287.111061986L364.14976927 291.43992927L359.820901986 295.559408576L355.313245085 299.442757797L350.636673122 303.085886759L345.801060653 306.484705286L340.816282235 309.635123203L335.692212424 312.533050336L330.438725775 315.174396509L325.065696845 317.555071548L319.583000189 319.670985276L314.000510364 321.51804752L308.328101926 323.092168104L302.575649431 324.389256853L296.753027435 325.405223592L290.870110494 326.135978147L284.936773163 326.577430341L278.96289 326.72549L272.989006837 326.577430341L267.055669506 326.135978147L261.172752565 325.405223592L255.350130569 324.389256853L249.597678074 323.092168104L243.925269636 321.51804752L238.342779811 319.670985276L232.860083155 317.555071548L227.487054225 315.174396509L222.233567576 312.533050336L217.109497765 309.635123203L212.124719347 306.484705286L207.289106878 303.085886759L202.612534915 299.442757797L198.104878014 295.559408576L193.77601073 291.43992927L189.656531424 287.111061986L185.773182203 282.603405083L182.130053241 277.926833115L178.731234714 273.091220638L175.580816797 268.106442205L172.682889664 262.982372371L170.041543491 257.728885691L167.660868452 252.35585672L165.544954724 246.873160011L163.69789248 241.29067012L162.123771896 235.618261601L160.826683147 229.865809009L159.810716408 224.043186899L159.079961853 218.160269824L158.638509659 212.226932339L158.49045 206.253049L158.638509659 200.279165837L159.079961853 194.345828506L159.810716408 188.462911565L160.826683147 182.640289569L162.123771896 176.887837074L163.69789248 171.215428636L165.544954724 165.632938811L167.660868452 160.150242155L170.041543491 154.777213225L172.682889664 149.523726576L175.580816797 144.399656765L178.731234714 139.414878347L182.130053241 134.579265878L185.773182203 129.902693915L189.656531424 125.395037014L193.77601073 121.06616973L198.104878014 116.946690424L202.612534915 113.063341203L207.289106878 109.420212241L212.124719347 106.021393714L217.109497765 102.870975797L222.233567576 99.9730486638L227.487054225 97.3317024907L232.860083155 94.9510274523L238.342779811 92.8351137237L243.925269636 90.9880514799L249.597678074 89.4139308959L255.350130569 88.1168421468L261.172752565 87.1008754076L267.055669506 86.3701208534L272.989006837 85.9286686592L278.96289 85.780609L284.936773163 85.9286686592L290.870110494 86.3701208534L296.753027435 87.1008754076L302.575649431 88.1168421468L308.328101926 89.4139308959L314.000510364 90.9880514799L319.583000189 92.8351137237L325.065696845 94.9510274523L330.438725775 97.3317024907L335.692212424 99.9730486638L340.816282235 102.870975797L345.801060653 106.021393714L350.636673122 109.420212241L355.313245085 113.063341203L359.820901986 116.946690424L364.14976927 121.06616973L368.269248576 125.395037014L372.152597797 129.902693915L375.795726759 134.579265878L379.194545286 139.414878347L382.344963203 144.399656765L385.242890336 149.523726576L387.884236509 154.777213225L390.264911548 160.150242155L392.380825276 165.632938811L394.22788752 171.215428636L395.802008104 176.887837074L397.099096853 182.640289569L398.115063592 188.462911565L398.845818147 194.345828506L399.287270341 200.279165837L399.43533 206.253049L399.43533 206.25305"
       inkscape:transform-center-y="299.74472"
       inkscape:transform-center-x="40.742008"
       style="fill:#000000;fill-rule:evenodd;stroke:none;stroke-width:7.08661413;stroke-linecap:butt;stroke-linejoin:miter;stroke-miterlimit:4;stroke-dasharray:none;stroke-opacity:1" />
    <path
       id="rect4187"
       d="M243.9629 358.36221L313.96288 358.36221L313.96289 358.36222L313.96289 418.36221L313.96288 418.36221L243.9629 418.36221L243.96289 418.36221L243.96289 358.36222L243.9629 358.36221L243.9629 358.36221"
       style="fill:#000000;stroke:none;stroke-width:0.84500003;stroke-miterlimit:4;stroke-dasharray:none" />
  </g>
</svg>
