  0
SECTION
  2
HEADER
  9
$ACADVER
  1
AC1014
  9
$HANDSEED
  5
FFFF
  9
$MEASUREMENT
 70
     1
  0
ENDSEC
  0
SECTION
  2
TABLES
  0
TABLE
  2
VPORT
  5
8
330
0
100
AcDbSymbolTable
 70
     4
  0
VPORT
  5
2E
330
8
100
AcDbSymbolTableRecord
100
AcDbViewportTableRecord
  2
*ACTIVE
 70
     0
 10
0.0
 20
0.0
 11
1.0
 21
1.0
 12
210.0
 22
148.5
 13
0.0
 23
0.0
 14
10.0
 24
10.0
 15
10.0
 25
10.0
 16
0.0
 26
0.0
 36
1.0
 17
0.0
 27
0.0
 37
0.0
 40
341.0
 41
1.24
 42
50.0
 43
0.0
 44
0.0
 50
0.0
 51
0.0
 71
     0
 72
   100
 73
     1
 74
     3
 75
     0
 76
     0
 77
     0
 78
     0
  0
ENDTAB
  0
TABLE
  2
LTYPE
  5
5
330
0
100
AcDbSymbolTable
 70
     1
  0
LTYPE
  5
14
330
5
100
AcDbSymbolTableRecord
100
AcDbLinetypeTableRecord
  2
BYBLOCK
 70
     0
  3

 72
    65
 73
     0
 40
0.0
  0
LTYPE
  5
15
330
5
100
AcDbSymbolTableRecord
100
AcDbLinetypeTableRecord
  2
BYLAYER
 70
     0
  3

 72
    65
 73
     0
 40
0.0
  0
LTYPE
  5
16
330
5
100
AcDbSymbolTableRecord
100
AcDbLinetypeTableRecord
  2
CONTINUOUS
 70
     0
  3
Solid line
 72
    65
 73
     0
 40
0.0
  0
ENDTAB
  0
TABLE
  2
LAYER
  5
2
100
AcDbSymbolTable
 70
2
  0
LAYER
  5
50
100
AcDbSymbolTableRecord
100
AcDbLayerTableRecord
  2
0
 70
0
  6
CONTINUOUS
  0
LAYER
  5
51
100
AcDbSymbolTableRecord
100
AcDbLayerTableRecord
  2
Layer_1
 70
0
  6
CONTINUOUS
  0
ENDTAB
  0
TABLE
  2
STYLE
  5
3
330
0
100
AcDbSymbolTable
 70
     1
  0
STYLE
  5
11
330
3
100
AcDbSymbolTableRecord
100
AcDbTextStyleTableRecord
  2
STANDARD
 70
     0
 40
0.0
 41
1.0
 50
0.0
 71
     0
 42
2.5
  3
txt
  4

  0
ENDTAB
  0
TABLE
  2
VIEW
  5
6
330
0
100
AcDbSymbolTable
 70
     0
  0
ENDTAB
  0
TABLE
  2
UCS
  5
7
330
0
100
AcDbSymbolTable
 70
     0
  0
ENDTAB
  0
TABLE
  2
APPID
  5
9
330
0
100
AcDbSymbolTable
 70
     2
  0
APPID
  5
12
330
9
100
AcDbSymbolTableRecord
100
AcDbRegAppTableRecord
  2
ACAD
 70
     0
  0
ENDTAB
  0
TABLE
  2
DIMSTYLE
  5
A
330
0
100
AcDbSymbolTable
 70
     1
  0
DIMSTYLE
105
27
330
A
100
AcDbSymbolTableRecord
100
AcDbDimStyleTableRecord
  2
ISO-25
 70
     0
  3

  4

  5

  6

  7

 40
1.0
 41
2.5
 42
0.625
 43
3.75
 44
1.25
 45
0.0
 46
0.0
 47
0.0
 48
0.0
140
2.5
141
2.5
142
0.0
143
0.03937007874016
144
1.0
145
0.0
146
1.0
147
0.625
 71
     0
 72
     0
 73
     0
 74
     0
 75
     0
 76
     0
 77
     1
 78
     8
170
     0
171
     3
172
     1
173
     0
174
     0
175
     0
176
     0
177
     0
178
     0
270
     2
271
     2
272
     2
273
     2
274
     3
340
11
275
     0
280
     0
281
     0
282
     0
283
     0
284
     8
285
     0
286
     0
287
     3
288
     0
  0
ENDTAB
  0
TABLE
  2
BLOCK_RECORD
  5
1
330
0
100
AcDbSymbolTable
 70
     1
  0
BLOCK_RECORD
  5
1F
330
1
100
AcDbSymbolTableRecord
100
AcDbBlockTableRecord
  2
*MODEL_SPACE
  0
BLOCK_RECORD
  5
1B
330
1
100
AcDbSymbolTableRecord
100
AcDbBlockTableRecord
  2
*PAPER_SPACE
  0
ENDTAB
  0
ENDSEC
  0
SECTION
  2
BLOCKS
  0
BLOCK
  5
20
330
1F
100
AcDbEntity
  8
0
100
AcDbBlockBegin
  2
*MODEL_SPACE
 70
     0
 10
0.0
 20
0.0
 30
0.0
  3
*MODEL_SPACE
  1

  0
ENDBLK
  5
21
330
1F
100
AcDbEntity
  8
0
100
AcDbBlockEnd
  0
BLOCK
  5
1C
330
1B
100
AcDbEntity
 67
     1
  8
0
100
AcDbBlockBegin
  2
*PAPER_SPACE
  1

  0
ENDBLK
  5
1D
330
1B
100
AcDbEntity
 67
     1
  8
0
100
AcDbBlockEnd
  0
ENDSEC
  0
SECTION
  2
ENTITIES
  0
LWPOLYLINE
  5
100
100
AcDbEntity
  8
Layer_1
 62
7
100
AcDbPolyline
 90
105
 70
0
 10
78.729527
 20
276.399982
 30
0.0
 10
76.755376
 20
276.350063
 30
0.0
 10
74.807141
 20
276.201916
 30
0.0
 10
72.887233
 20
275.957951
 30
0.0
 10
70.998061
 20
275.620578
 30
0.0
 10
69.142037
 20
275.192209
 30
0.0
 10
67.321569
 20
274.675253
 30
0.0
 10
65.539070
 20
274.072122
 30
0.0
 10
63.796949
 20
273.385224
 30
0.0
 10
62.097617
 20
272.616972
 30
0.0
 10
60.443484
 20
271.769774
 30
0.0
 10
58.836960
 20
270.846042
 30
0.0
 10
57.280456
 20
269.848186
 30
0.0
 10
55.776383
 20
268.778617
 30
0.0
 10
54.327150
 20
267.639744
 30
0.0
 10
52.935169
 20
266.433978
 30
0.0
 10
51.602849
 20
265.163730
 30
0.0
 10
50.332601
 20
263.831411
 30
0.0
 10
49.126835
 20
262.439429
 30
0.0
 10
47.987963
 20
260.990196
 30
0.0
 10
46.918393
 20
259.486123
 30
0.0
 10
45.920537
 20
257.929619
 30
0.0
 10
44.996805
 20
256.323096
 30
0.0
 10
44.149608
 20
254.668962
 30
0.0
 10
43.381355
 20
252.969630
 30
0.0
 10
42.694458
 20
251.227509
 30
0.0
 10
42.091326
 20
249.445010
 30
0.0
 10
41.574370
 20
247.624543
 30
0.0
 10
41.146001
 20
245.768518
 30
0.0
 10
40.808629
 20
243.879346
 30
0.0
 10
40.564664
 20
241.959438
 30
0.0
 10
40.416516
 20
240.011203
 30
0.0
 10
40.366597
 20
238.037052
 30
0.0
 10
40.453229
 20
235.505398
 30
0.0
 10
40.704002
 20
233.004442
 30
0.0
 10
41.115018
 20
230.540990
 30
0.0
 10
41.682380
 20
228.121853
 30
0.0
 10
42.402187
 20
225.753838
 30
0.0
 10
43.270544
 20
223.443754
 30
0.0
 10
44.283550
 20
221.198409
 30
0.0
 10
45.437309
 20
219.024613
 30
0.0
 10
46.727921
 20
216.929172
 30
0.0
 10
48.151490
 20
214.918896
 30
0.0
 10
49.704115
 20
213.000594
 30
0.0
 10
51.381900
 20
211.181073
 30
0.0
 10
53.180946
 20
209.467142
 30
0.0
 10
55.097354
 20
207.865610
 30
0.0
 10
57.127227
 20
206.383285
 30
0.0
 10
59.266667
 20
205.026975
 30
0.0
 10
59.266667
 20
168.763074
 30
0.0
 10
97.568410
 20
168.763074
 30
0.0
 10
97.568410
 20
204.672544
 30
0.0
 10
98.684135
 20
205.326428
 30
0.0
 10
99.772466
 20
206.014322
 30
0.0
 10
100.832879
 20
206.735333
 30
0.0
 10
101.864854
 20
207.488568
 30
0.0
 10
103.841394
 20
209.088139
 30
0.0
 10
105.697908
 20
210.805892
 30
0.0
 10
107.430214
 20
212.634684
 30
0.0
 10
109.034134
 20
214.567372
 30
0.0
 10
110.505486
 20
216.596812
 30
0.0
 10
111.840092
 20
218.715863
 30
0.0
 10
113.033770
 20
220.917380
 30
0.0
 10
114.082342
 20
223.194221
 30
0.0
 10
114.981628
 20
225.539242
 30
0.0
 10
115.727446
 20
227.945302
 30
0.0
 10
116.315618
 20
230.405255
 30
0.0
 10
116.741964
 20
232.911960
 30
0.0
 10
116.893146
 20
234.180612
 30
0.0
 10
117.002303
 20
235.458274
 30
0.0
 10
117.068914
 20
236.744051
 30
0.0
 10
117.092456
 20
238.037052
 30
0.0
 10
117.042537
 20
240.011203
 30
0.0
 10
116.894390
 20
241.959438
 30
0.0
 10
116.650425
 20
243.879346
 30
0.0
 10
116.313052
 20
245.768518
 30
0.0
 10
115.884683
 20
247.624543
 30
0.0
 10
115.367727
 20
249.445010
 30
0.0
 10
114.764596
 20
251.227509
 30
0.0
 10
114.077698
 20
252.969630
 30
0.0
 10
113.309446
 20
254.668962
 30
0.0
 10
112.462248
 20
256.323096
 30
0.0
 10
111.538516
 20
257.929619
 30
0.0
 10
110.540660
 20
259.486123
 30
0.0
 10
109.471091
 20
260.990196
 30
0.0
 10
108.332218
 20
262.439429
 30
0.0
 10
107.126453
 20
263.831411
 30
0.0
 10
105.856205
 20
265.163730
 30
0.0
 10
104.523885
 20
266.433978
 30
0.0
 10
103.131903
 20
267.639744
 30
0.0
 10
101.682671
 20
268.778617
 30
0.0
 10
100.178597
 20
269.848186
 30
0.0
 10
98.622094
 20
270.846042
 30
0.0
 10
97.015570
 20
271.769774
 30
0.0
 10
95.361437
 20
272.616972
 30
0.0
 10
93.662104
 20
273.385224
 30
0.0
 10
91.919983
 20
274.072122
 30
0.0
 10
90.137484
 20
274.675253
 30
0.0
 10
88.317017
 20
275.192209
 30
0.0
 10
86.460992
 20
275.620578
 30
0.0
 10
84.571820
 20
275.957951
 30
0.0
 10
82.651912
 20
276.201916
 30
0.0
 10
80.703677
 20
276.350063
 30
0.0
 10
78.729527
 20
276.399982
 30
0.0
 10
78.729527
 20
276.399982
 30
0.0
  0
LWPOLYLINE
  5
101
100
AcDbEntity
  8
Layer_1
 62
7
100
AcDbPolyline
 90
130
 70
0
 10
112.729526
 20
238.790806
 30
0.0
 10
112.687741
 20
237.104843
 30
0.0
 10
112.563153
 20
235.430324
 30
0.0
 10
112.356918
 20
233.770034
 30
0.0
 10
112.070190
 20
232.126760
 30
0.0
 10
111.704122
 20
230.503291
 30
0.0
 10
111.259870
 20
228.902411
 30
0.0
 10
110.738588
 20
227.326908
 30
0.0
 10
110.141431
 20
225.779569
 30
0.0
 10
109.469551
 20
224.263181
 30
0.0
 10
108.724105
 20
222.780530
 30
0.0
 10
107.906245
 20
221.334404
 30
0.0
 10
107.017127
 20
219.927589
 30
0.0
 10
106.057905
 20
218.562872
 30
0.0
 10
105.029733
 20
217.243039
 30
0.0
 10
103.933766
 20
215.970878
 30
0.0
 10
102.771157
 20
214.749176
 30
0.0
 10
101.549455
 20
213.586567
 30
0.0
 10
100.277294
 20
212.490599
 30
0.0
 10
98.957461
 20
211.462428
 30
0.0
 10
97.592744
 20
210.503205
 30
0.0
 10
96.185929
 20
209.614087
 30
0.0
 10
94.739802
 20
208.796228
 30
0.0
 10
93.257151
 20
208.050781
 30
0.0
 10
91.740763
 20
207.378902
 30
0.0
 10
90.193424
 20
206.781744
 30
0.0
 10
88.617922
 20
206.260462
 30
0.0
 10
87.017042
 20
205.816210
 30
0.0
 10
85.393572
 20
205.450143
 30
0.0
 10
83.750299
 20
205.163415
 30
0.0
 10
82.090009
 20
204.957179
 30
0.0
 10
80.415489
 20
204.832592
 30
0.0
 10
78.729527
 20
204.790806
 30
0.0
 10
77.043564
 20
204.832592
 30
0.0
 10
75.369045
 20
204.957179
 30
0.0
 10
73.708755
 20
205.163415
 30
0.0
 10
72.065481
 20
205.450143
 30
0.0
 10
70.442011
 20
205.816210
 30
0.0
 10
68.841132
 20
206.260462
 30
0.0
 10
67.265629
 20
206.781744
 30
0.0
 10
65.718290
 20
207.378902
 30
0.0
 10
64.201902
 20
208.050781
 30
0.0
 10
62.719251
 20
208.796228
 30
0.0
 10
61.273125
 20
209.614087
 30
0.0
 10
59.866310
 20
210.503205
 30
0.0
 10
58.501592
 20
211.462428
 30
0.0
 10
57.181760
 20
212.490599
 30
0.0
 10
55.909599
 20
213.586567
 30
0.0
 10
54.687896
 20
214.749176
 30
0.0
 10
53.525288
 20
215.970878
 30
0.0
 10
52.429320
 20
217.243039
 30
0.0
 10
51.401148
 20
218.562872
 30
0.0
 10
50.441926
 20
219.927589
 30
0.0
 10
49.552808
 20
221.334404
 30
0.0
 10
48.734949
 20
222.780530
 30
0.0
 10
47.989502
 20
224.263181
 30
0.0
 10
47.317623
 20
225.779569
 30
0.0
 10
46.720465
 20
227.326908
 30
0.0
 10
46.199183
 20
228.902411
 30
0.0
 10
45.754931
 20
230.503291
 30
0.0
 10
45.388864
 20
232.126761
 30
0.0
 10
45.102136
 20
233.770034
 30
0.0
 10
44.895900
 20
235.430324
 30
0.0
 10
44.771313
 20
237.104844
 30
0.0
 10
44.729527
 20
238.790806
 30
0.0
 10
44.771313
 20
240.476769
 30
0.0
 10
44.895900
 20
242.151288
 30
0.0
 10
45.102136
 20
243.811578
 30
0.0
 10
45.388864
 20
245.454852
 30
0.0
 10
45.754931
 20
247.078322
 30
0.0
 10
46.199183
 20
248.679201
 30
0.0
 10
46.720465
 20
250.254704
 30
0.0
 10
47.317623
 20
251.802043
 30
0.0
 10
47.989502
 20
253.318431
 30
0.0
 10
48.734949
 20
254.801082
 30
0.0
 10
49.552808
 20
256.247208
 30
0.0
 10
50.441926
 20
257.654023
 30
0.0
 10
51.401148
 20
259.018741
 30
0.0
 10
52.429320
 20
260.338573
 30
0.0
 10
53.525288
 20
261.610734
 30
0.0
 10
54.687896
 20
262.832437
 30
0.0
 10
55.909599
 20
263.995045
 30
0.0
 10
57.181760
 20
265.091013
 30
0.0
 10
58.501592
 20
266.119185
 30
0.0
 10
59.866310
 20
267.078407
 30
0.0
 10
61.273125
 20
267.967525
 30
0.0
 10
62.719251
 20
268.785384
 30
0.0
 10
64.201902
 20
269.530831
 30
0.0
 10
65.718290
 20
270.202710
 30
0.0
 10
67.265629
 20
270.799868
 30
0.0
 10
68.841132
 20
271.321150
 30
0.0
 10
70.442011
 20
271.765402
 30
0.0
 10
72.065481
 20
272.131469
 30
0.0
 10
73.708755
 20
272.418197
 30
0.0
 10
75.369045
 20
272.624433
 30
0.0
 10
77.043564
 20
272.749020
 30
0.0
 10
78.729527
 20
272.790806
 30
0.0
 10
80.415489
 20
272.749020
 30
0.0
 10
82.090009
 20
272.624433
 30
0.0
 10
83.750299
 20
272.418197
 30
0.0
 10
85.393572
 20
272.131469
 30
0.0
 10
87.017042
 20
271.765402
 30
0.0
 10
88.617922
 20
271.321150
 30
0.0
 10
90.193424
 20
270.799868
 30
0.0
 10
91.740763
 20
270.202710
 30
0.0
 10
93.257151
 20
269.530831
 30
0.0
 10
94.739802
 20
268.785384
 30
0.0
 10
96.185929
 20
267.967525
 30
0.0
 10
97.592744
 20
267.078407
 30
0.0
 10
98.957461
 20
266.119185
 30
0.0
 10
100.277294
 20
265.091013
 30
0.0
 10
101.549455
 20
263.995045
 30
0.0
 10
102.771157
 20
262.832437
 30
0.0
 10
103.933766
 20
261.610734
 30
0.0
 10
105.029733
 20
260.338573
 30
0.0
 10
106.057905
 20
259.018741
 30
0.0
 10
107.017127
 20
257.654023
 30
0.0
 10
107.906245
 20
256.247208
 30
0.0
 10
108.724105
 20
254.801082
 30
0.0
 10
109.469551
 20
253.318431
 30
0.0
 10
110.141431
 20
251.802043
 30
0.0
 10
110.738588
 20
250.254704
 30
0.0
 10
111.259870
 20
248.679201
 30
0.0
 10
111.704122
 20
247.078322
 30
0.0
 10
112.070190
 20
245.454852
 30
0.0
 10
112.356918
 20
243.811578
 30
0.0
 10
112.563153
 20
242.151288
 30
0.0
 10
112.687741
 20
240.476769
 30
0.0
 10
112.729526
 20
238.790806
 30
0.0
 10
112.729526
 20
238.790806
 30
0.0
  0
LWPOLYLINE
  5
102
100
AcDbEntity
  8
Layer_1
 62
7
100
AcDbPolyline
 90
10
 70
0
 10
68.851752
 20
195.862221
 30
0.0
 10
88.607302
 20
195.862221
 30
0.0
 10
88.607305
 20
195.862218
 30
0.0
 10
88.607305
 20
178.928887
 30
0.0
 10
88.607302
 20
178.928887
 30
0.0
 10
68.851752
 20
178.928887
 30
0.0
 10
68.851749
 20
178.928887
 30
0.0
 10
68.851749
 20
195.862218
 30
0.0
 10
68.851752
 20
195.862221
 30
0.0
 10
68.851752
 20
195.862221
 30
0.0
  0
ENDSEC
  0
SECTION
  2
OBJECTS
  0
DICTIONARY
  5
C
330
0
100
AcDbDictionary
  3
ACAD_GROUP
350
D
  3
ACAD_MLINESTYLE
350
17
  0
DICTIONARY
  5
D
330
C
100
AcDbDictionary
  0
DICTIONARY
  5
1A
330
C
100
AcDbDictionary
  0
DICTIONARY
  5
17
330
C
100
AcDbDictionary
  3
STANDARD
350
18
  0
DICTIONARY
  5
19
330
C
100
AcDbDictionary
  0
ENDSEC
  0
EOF
